<svg width="182" height="60" viewBox="0 0 182 60" fill="none" xmlns="http://www.w3.org/2000/svg">
<rect y="4.15417" width="5.53886" height="55.3886" rx="2.76943" fill="#9440FF"/>
<rect x="22.1554" y="4.15417" width="5.53886" height="55.3886" rx="2.76943" fill="#9440FF"/>
<rect x="44.3109" y="4.15417" width="5.53886" height="55.3886" rx="2.76943" fill="#9440FF"/>
<rect x="11.0778" width="5.53886" height="55.3886" rx="2.76943" fill="#1E2772"/>
<rect x="33.2332" width="5.53886" height="55.3886" rx="2.76943" fill="#1E2772"/>
<path d="M87.088 21.856V44H84.176V27.488L76.816 44H74.768L67.376 27.456V44H64.464V21.856H67.6L75.792 40.16L83.984 21.856H87.088ZM99.6745 44.288C98.0318 44.288 96.5385 43.9147 95.1945 43.168C93.8718 42.4213 92.8265 41.3653 92.0585 40C91.3118 38.6133 90.9385 37.0133 90.9385 35.2C90.9385 33.408 91.3225 31.8293 92.0905 30.464C92.8798 29.0773 93.9465 28.0213 95.2905 27.296C96.6345 26.5493 98.1385 26.176 99.8025 26.176C101.467 26.176 102.971 26.5493 104.315 27.296C105.659 28.0213 106.715 29.0667 107.483 30.432C108.272 31.7973 108.667 33.3867 108.667 35.2C108.667 37.0133 108.261 38.6133 107.451 40C106.661 41.3653 105.584 42.4213 104.219 43.168C102.853 43.9147 101.339 44.288 99.6745 44.288ZM99.6745 41.728C100.72 41.728 101.701 41.4827 102.619 40.992C103.536 40.5013 104.272 39.7653 104.827 38.784C105.403 37.8027 105.691 36.608 105.691 35.2C105.691 33.792 105.413 32.5973 104.859 31.616C104.304 30.6347 103.579 29.9093 102.683 29.44C101.787 28.9493 100.816 28.704 99.7705 28.704C98.7038 28.704 97.7225 28.9493 96.8265 29.44C95.9518 29.9093 95.2478 30.6347 94.7145 31.616C94.1812 32.5973 93.9145 33.792 93.9145 35.2C93.9145 36.6293 94.1705 37.8347 94.6825 38.816C95.2158 39.7973 95.9198 40.5333 96.7945 41.024C97.6692 41.4933 98.6292 41.728 99.6745 41.728ZM119.023 41.312L124.463 26.464H127.567L120.687 44H117.295L110.415 26.464H113.551L119.023 41.312ZM146.433 34.56C146.433 35.1147 146.401 35.7013 146.337 36.32H132.321C132.427 38.048 133.014 39.4027 134.081 40.384C135.169 41.344 136.481 41.824 138.017 41.824C139.275 41.824 140.321 41.536 141.153 40.96C142.006 40.3627 142.603 39.5733 142.945 38.592H146.081C145.611 40.2773 144.673 41.6533 143.265 42.72C141.857 43.7653 140.107 44.288 138.017 44.288C136.353 44.288 134.859 43.9147 133.537 43.168C132.235 42.4213 131.211 41.3653 130.465 40C129.718 38.6133 129.345 37.0133 129.345 35.2C129.345 33.3867 129.707 31.7973 130.433 30.432C131.158 29.0667 132.171 28.0213 133.473 27.296C134.795 26.5493 136.31 26.176 138.017 26.176C139.681 26.176 141.153 26.5387 142.433 27.264C143.713 27.9893 144.694 28.992 145.377 30.272C146.081 31.5307 146.433 32.96 146.433 34.56ZM143.425 33.952C143.425 32.8427 143.179 31.8933 142.689 31.104C142.198 30.2933 141.526 29.6853 140.673 29.28C139.841 28.8533 138.913 28.64 137.889 28.64C136.417 28.64 135.158 29.1093 134.113 30.048C133.089 30.9867 132.502 32.288 132.353 33.952H143.425ZM153.189 21.696V44H150.277V21.696H153.189ZM161.704 28.864V39.2C161.704 40.0533 161.885 40.6613 162.248 41.024C162.61 41.3653 163.24 41.536 164.135 41.536H166.28V44H163.656C162.034 44 160.818 43.6267 160.008 42.88C159.197 42.1333 158.792 40.9067 158.792 39.2V28.864H156.52V26.464H158.792V22.048H161.704V26.464H166.28V28.864H161.704ZM173.584 21.696L173.232 37.696H170.8L170.448 21.696H173.584ZM172.144 44.192C171.589 44.192 171.12 44 170.736 43.616C170.352 43.232 170.16 42.7627 170.16 42.208C170.16 41.6533 170.352 41.184 170.736 40.8C171.12 40.416 171.589 40.224 172.144 40.224C172.677 40.224 173.125 40.416 173.488 40.8C173.872 41.184 174.064 41.6533 174.064 42.208C174.064 42.7627 173.872 43.232 173.488 43.616C173.125 44 172.677 44.192 172.144 44.192Z" fill="black"/>
</svg>
